<?xml version="1.0" encoding="UTF-8" standalone="no"?>
<!--
  - Copyright © 2020-2022 Metreeca srl
  -
  - Licensed under the Apache License, Version 2.0 (the "License");
  - you may not use this file except in compliance with the License.
  - You may obtain a copy of the License at
  -
  -     http://www.apache.org/licenses/LICENSE-2.0
  -
  - Unless required by applicable law or agreed to in writing, software
  - distributed under the License is distributed on an "AS IS" BASIS,
  - WITHOUT WARRANTIES OR CONDITIONS OF ANY KIND, either express or implied.
  - See the License for the specific language governing permissions and
  - limitations under the License.
  -->

<!DOCTYPE svg PUBLIC "-//W3C//DTD SVG 1.1//EN" "http://www.w3.org/Graphics/SVG/1.1/DTD/svg11.dtd">
<svg xmlns="http://www.w3.org/2000/svg" version="1.1" viewBox="1.7156177 0 508.56876 512" width="508.56876" height="512">
    <defs/>
    <metadata>Produced by OmniGraffle 7.18.5\n2021-04-24 13:16:00 +0000</metadata>
    <g id="index" stroke-opacity="1" stroke-dasharray="none" fill-opacity="1" fill="none" stroke="none">
        <title>index</title>
        <g id="index_Layer_1">
            <title>Layer 1</title>
            <g id="Group_567">
                <g id="Graphic_569">
                    <path d="M 467.7773 256 L 465.4736 233.12972 C 480.5447 227.10685 495.50474 220.11254 510.2844 212.1468 C 507.50886 193.03735 499.95945 174.7328 494.4223 156.20621 C 477.6443 157.55234 461.12994 159.81439 445.1013 162.93685 L 434.138 142.73107 C 430.72413 135.8339 424.81227 130.64368 420.2604 124.52366 C 429.6139 111.33995 438.34293 97.39296 446.39193 82.7521 C 434.16577 67.70879 417.51266 56.981406 402.88567 44.36667 C 389.77134 54.1365 376.8652 65.28021 365.11086 76.493305 L 344.91896 65.530005 C 338.46588 61.200195 330.55565 60.31203 323.42256 57.63365 C 324.1442 41.521765 323.9499 25.10457 322.7842 8.479211 C 304.438 1.609801 284.52366 2.6644983 265.38646 45474735e-20 C 259.64113 14.83515 254.86724 30.613975 251.0509 46.86464 L 228.16675 49.16832 C 220.50632 49.62628 212.94303 50.708733 205.72668 53.525885 C 197.69155 39.7038 188.69887 26.117634 178.7625 12.878408 C 159.70857 17.513525 142.9028 27.40825 125.88887 36.81726 C 129.3999 52.91527 133.2995 67.84756 138.83667 83.50149 L 121.11498 98.1146 C 115.28639 103.05502 108.91657 107.45422 104.47574 113.81016 C 90.26508 106.56605 75.3883 100.02971 59.92866 94.2705 C 46.59229 108.56443 37.37757 125.6755 28.440397 142.96699 C 39.986556 154.59641 51.699246 165.24053 64.35561 175.21852 L 57.527837 197.159 C 55.751504 204.56963 51.89353 211.56394 51.824145 219.3354 C 36.03144 220.9452 20.05833 223.51255 4.015829 227.05134 C .9488806 246.35507 .9488806 265.64493 4.015829 284.96254 C 20.05833 288.50133 36.03144 291.0687 51.824145 292.6785 C 51.90741 300.43606 55.76538 307.44425 57.527837 314.8549 L 64.35561 336.79536 C 51.699246 346.77335 40.000434 357.4036 28.440397 369.0469 C 37.391446 386.3245 46.59229 403.43557 59.92866 417.7295 C 75.41606 411.9703 90.27896 405.43395 104.48962 398.18984 C 108.91657 404.5458 115.30027 408.945 121.14273 413.8854 L 138.86442 428.5124 C 133.31338 444.15244 129.3999 459.08473 125.90275 475.18274 C 142.91668 484.6056 159.72245 494.4865 178.79026 499.1216 C 188.71274 485.88237 197.70543 472.3101 205.75443 458.488 C 212.9569 461.29127 220.50632 462.3737 228.1945 462.8317 L 251.0509 465.13536 C 254.86724 481.386 259.655 497.16485 265.4142 512 C 284.53754 509.3355 304.4519 510.4041 322.79807 503.53467 C 323.9638 486.88155 324.15807 470.47823 323.43644 454.36635 C 330.56952 451.6741 338.46588 450.78593 344.91896 446.4561 L 365.11086 435.5067 C 376.8652 446.7059 389.7852 457.8496 402.91343 467.61945 C 417.52654 455.0047 434.16577 444.27734 446.39193 429.22014 C 438.34293 414.59316 429.6139 400.64618 420.2604 387.46246 C 424.81227 381.34244 430.738 376.1522 434.138 369.25506 L 445.1013 349.06315 C 461.12994 352.17174 477.6443 354.4338 494.4223 355.76603 C 499.95945 337.25332 507.50886 318.94877 510.2844 299.83932 C 495.50474 291.8736 480.5447 284.89315 465.4736 278.8564 L 467.7773 256 Z M 324.06093 400.89597 C 296.30574 411.38743 265.45585 419.7834 235.29983 413.23315 C 205.69892 408.51477 176.08413 397.2323 153.96325 376.0412 C 131.32889 356.224 112.76067 330.28677 105.6137 300.74137 C 96.35735 271.95923 96.35735 240.05464 105.6137 211.25863 C 112.76067 181.71323 131.32889 155.78988 153.96325 135.9588 C 176.08413 114.76771 205.69892 103.48523 235.28595 98.76685 C 265.44197 92.21662 296.30574 100.61257 324.06093 111.10403 C 352.0798 123.34407 374.506 145.34006 392.0195 169.86177 C 408.78365 195.56307 415.5698 225.69133 417.6653 256 C 415.5698 286.2948 408.78365 316.42305 392.0195 342.12436 C 374.506 366.64607 352.09367 388.65593 324.06093 400.89597"
                          fill="#345"/>
                </g>
                <g id="Graphic_568">
                    <circle cx="256" cy="256" r="90.0001438111707" fill="#d60"/>
                </g>
            </g>
        </g>
    </g>
</svg>
