<?xml version="1.0" encoding="UTF-8" standalone="no"?>
<!--
  - Copyright © 2022 EC2U Alliance. All rights reserved.
  -->

<!DOCTYPE svg PUBLIC "-//W3C//DTD SVG 1.1//EN" "http://www.w3.org/Graphics/SVG/1.1/DTD/svg11.dtd">
<svg xmlns="http://www.w3.org/2000/svg" version="1.1" viewBox="0 0 512 512" width="512" height="512">
  <defs/>
  <g id="EC2U_-_Base" stroke-dasharray="none" stroke="none" fill-opacity="1" stroke-opacity="1" fill="none">
    <title>EC2U - Base</title>
    <g id="EC2U_-_Base_Layer_1">
      <title>Layer 1</title>
      <g id="Graphic_25">
        <path d="M 437.01914 74.98086 C 536.9938 174.955 536.9938 337.045 437.01914 437.01914 C 337.045 536.9938 174.955 536.9938 74.98086 437.01914 C -24.993792 337.045 -24.993792 174.955 74.98086 74.98086 C 174.955 -24.993792 337.045 -24.993792 437.01914 74.98086"
              fill="white"/>
      </g>
      <g id="Graphic_26">
        <path d="M 414.39174 97.60826 C 501.86957 185.08563 501.86957 326.91437 414.39174 414.39174 C 326.91437 501.86957 185.08563 501.86957 97.60826 414.39174 C 10.130432 326.91437 10.130432 185.08563 97.60826 97.60826 C 185.08563 10.130432 326.91437 10.130432 414.39174 97.60826"
              fill="#162372"/>
      </g>
      <g id="Graphic_28">
        <path d="M 64 256 L 159.29986 209.43167 L 136.28996 105.88836 L 232.11704 151.3619 L 298.72402 68.81384 L 322.91858 172.08676 L 428.986 172.69432 L 363.32906 256 L 428.986 339.30568 L 322.91858 339.91324 L 298.72402 443.18616 L 232.11704 360.6381 L 136.28996 406.11164 L 159.29986 302.56833 Z"
              fill="white"/>
      </g>
      <g id="Graphic_27">
        <path d="M 128 256 L 191.53324 224.95444 L 176.1933 155.92557 L 240.07802 186.24127 L 284.48268 131.20923 L 300.6124 200.05784 L 371.324 200.46288 L 327.5527 256 L 371.324 311.53712 L 300.6124 311.94216 L 284.48268 380.79077 L 240.07802 325.75873 L 176.1933 356.07443 L 191.53324 287.04556 Z"
              fill="#f7d638"/>
      </g>
    </g>
  </g>
</svg>
