<?xml version="1.0" encoding="UTF-8" standalone="no"?>
<!--
  - Copyright © 2020-2022 EC2U Consortium. All rights reserved.
  -->

<!DOCTYPE svg PUBLIC "-//W3C//DTD SVG 1.1//EN" "http://www.w3.org/Graphics/SVG/1.1/DTD/svg11.dtd">
<svg xmlns="http://www.w3.org/2000/svg" version="1.1" viewBox="0 0 64 64" width="64" height="64">
	<defs/>
	<g id="CC" stroke="none" stroke-dasharray="none" fill="none" fill-opacity="1" stroke-opacity="1">
		<title>CC</title>
		<g id="CC_Layer_1">
			<title>Layer 1</title>
			<g id="Group_30">
				<g id="Graphic_27">
					<path d="M 52.076217 56.92217 L 45.38415 48.61478 C 37.006487 55.380394 24.700573 54.87044 16.915088 47.08492 C 8.583867 38.753746 8.583867 25.246254 16.915088 16.91508 C 24.700573 9.129558 37.006487 8.619606 45.38415 15.385221 L 52.076217 7.077832 C 39.509723 -3.0705917 21.050852 -2.3056627 9.372624 9.372619 C -3.124208 21.86938 -3.124208 42.13062 9.372624 54.62738 C 21.050852 66.30566 39.509723 67.07059 52.076217 56.92217 Z"
					      fill="#1c275d"/>
				</g>
				<g id="Graphic_29">
					<path d="M 42.038116 44.461084 L 35.34605 36.153695 C 33.251634 37.8451 30.175155 37.71761 28.228784 35.77123 C 26.14598 33.688436 26.14598 30.311564 28.228784 28.22877 C 30.175155 26.28239 33.251634 26.1549 35.34605 27.846305 L 42.038116 19.538916 C 35.75487 14.464704 26.525434 14.847169 20.68632 20.68631 C 14.437904 26.93469 14.437904 37.06531 20.68632 43.31369 C 26.525434 49.15283 35.75487 49.535296 42.038116 44.461084 Z"
					      fill="#c0a72b"/>
				</g>
			</g>
		</g>
	</g>
</svg>
