<?xml version="1.0" encoding="UTF-8" standalone="no"?>
<!DOCTYPE svg PUBLIC "-//W3C//DTD SVG 1.1//EN" "http://www.w3.org/Graphics/SVG/1.1/DTD/svg11.dtd">
<svg version="1.1" xmlns="http://www.w3.org/2000/svg" viewBox="-16e-6 -16e-6 54.94303 64.00003" width="54.94303"
     height="64.00003">
  <defs/>
  <metadata>Produced by OmniGraffle 7.19.4\n2022-02-12 13:31:48 +0000</metadata>
  <g id="CC_-_Background" stroke-dasharray="none" stroke-opacity="1" stroke="none" fill="none" fill-opacity="1">
    <title>CC - Background</title>
    <g id="CC_-_Background_Layer_1">
      <title>Layer 1</title>
      <g id="Graphic_35">
        <path d="M 54.94301 54.3074 L 40.308623 35.618414 C 38.607317 33.445746 38.607317 30.392806 40.308623 28.220137 L 54.87287 9.620722 C 54.79159 9.537683 54.70976 9.454977 54.62739 9.372608 C 42.130624 -3.124224 21.869376 -3.124224 9.372608 9.372608 C -3.124224 21.869376 -3.124224 42.130624 9.372608 54.62739 C 21.869376 67.12422 42.130624 67.12422 54.62739 54.62739 C 54.7335 54.521285 54.838705 54.41462 54.94301 54.3074 Z"
              fill="white"/>
      </g>
      <g id="Graphic_27">
        <path d="M 49.56669 53.8069 L 43.71113 46.53793 C 36.380676 52.457845 25.613002 52.011637 18.800702 45.199305 C 11.510883 37.909528 11.510883 26.090472 18.800702 18.800695 C 25.613002 11.988363 36.380676 11.542155 43.71113 17.462069 L 49.56669 10.193103 C 38.571007 1.3132323 22.419496 1.9825452 12.201046 12.201042 C 1.266318 23.135708 1.266318 40.86429 12.201046 51.79896 C 22.419496 62.017455 38.571007 62.68677 49.56669 53.8069 Z"
              fill="#1c275d"/>
      </g>
      <g id="Graphic_29">
        <path d="M 40.78335 42.90345 L 34.927793 35.634483 C 33.09518 37.11446 30.40326 37.00291 28.700186 35.299826 C 26.87773 33.47738 26.87773 30.522618 28.700186 28.700174 C 30.40326 26.99709 33.09518 26.88554 34.927793 28.365517 L 40.78335 21.096552 C 35.28551 16.656616 27.209755 16.991273 22.10053 22.10052 C 16.633166 27.567854 16.633166 36.432146 22.10053 41.89948 C 27.209755 47.00873 35.28551 47.343384 40.78335 42.90345 Z"
              fill="#c0a72b"/>
      </g>
    </g>
  </g>
</svg>
