<?xml version="1.0" encoding="UTF-8" standalone="no"?>
<!--
  - Copyright © 2020-2025 EC2U Alliance
  -
  - Licensed under the Apache License, Version 2.0 (the "License");
  - you may not use this file except in compliance with the License.
  - You may obtain a copy of the License at
  -
  -     http://www.apache.org/licenses/LICENSE-2.0
  -
  - Unless required by applicable law or agreed to in writing, software
  - distributed under the License is distributed on an "AS IS" BASIS,
  - WITHOUT WARRANTIES OR CONDITIONS OF ANY KIND, either express or implied.
  - See the License for the specific language governing permissions and
  - limitations under the License.
  -->

<!DOCTYPE svg PUBLIC "-//W3C//DTD SVG 1.1//EN" "http://www.w3.org/Graphics/SVG/1.1/DTD/svg11.dtd">
<svg version="1.1" xmlns="http://www.w3.org/2000/svg" viewBox="0 0 512 512" width="512" height="512">
    <defs>
        <clipPath id="outer_stroke_clip_path">
            <path d="M 0 0 L 512 0 L 512 512 L 0 512 Z M 175.82324 232 L 175.82324 232 C 186.14434 232 196.15566 230.29704 205.8575 226.89108 C 215.55933 223.48512 223.09363 219.51155 228.4606 214.97027 C 234.24042 210.42898 237.13028 205.37172 237.13028 199.79832 C 237.13028 195.66988 235.63374 192.05755 232.64062 188.96122 C 229.6475 185.86489 225.88036 184.31675 221.33907 184.31675 C 218.03632 184.31675 214.5272 185.24563 210.8116 187.10343 C 208.54096 188.34196 206.01233 189.8385 203.22563 191.59309 C 200.43893 193.34767 196.775 194.8442 192.2337 196.08274 C 187.69243 197.32128 181.60307 197.94053 173.96545 197.94053 C 165.70857 197.94053 157.91625 195.92795 150.58827 191.90272 C 143.26029 187.87749 137.27414 181.99455 132.62964 174.25372 C 127.98515 166.5129 125.66293 157.06923 125.66293 145.92244 C 125.66293 135.80776 126.79824 127.44779 129.06888 120.84228 C 131.33952 114.23678 134.4358 108.9731 138.35783 105.05108 C 142.27985 101.12906 146.92427 98.3424 152.29124 96.69103 C 157.65822 95.03965 163.43795 94.21397 169.6306 94.21397 C 176.0297 94.21397 182.06745 95.6073 187.74405 98.394 C 193.42066 101.1807 198.1683 104.94784 201.9871 109.69555 C 205.8059 114.44326 207.9217 119.81015 208.33455 125.79639 L 208.33455 134.15644 L 215.14644 127.96381 L 101.51168 127.96381 L 110.80062 158.92696 L 229.07986 158.92696 C 234.034 158.92696 238.3688 157.37882 242.0844 154.28249 C 245.79998 151.18616 247.76096 147.16099 247.96738 142.20686 C 247.96738 131.06007 245.8516 120.5327 241.61994 110.62444 C 237.3883 100.71619 231.66016 91.99499 224.4354 84.46058 C 217.21062 76.92618 208.90225 70.99163 199.51005 66.65677 C 190.11785 62.321905 180.15813 60.15451 169.6306 60.15451 C 156.00675 60.15451 143.10557 63.66363 130.92667 70.68198 C 118.74777 77.70033 108.89126 87.76325 101.35686 100.87105 C 93.82246 113.97885 90.05531 129.8215 90.05531 148.39949 C 90.05531 164.29399 93.51283 178.5369 100.42797 191.12864 C 107.3431 203.72038 117.25121 213.6801 130.15259 221.00808 C 143.05397 228.33606 158.27737 232 175.82324 232 Z"/>
        </clipPath>
        <clipPath id="outer_stroke_clip_path_2">
            <path d="M 0 0 L 512 0 L 512 512 L 0 512 Z M 169.92608 280.7188 L 169.92608 280.7188 C 154.45375 280.7188 140.73985 284.28543 128.78395 291.41878 C 116.82806 298.55213 107.48452 308.398 100.75305 320.95672 C 94.02158 333.51543 90.6559 348.0331 90.6559 364.5101 C 90.6559 380.1834 93.82065 394.3494 100.15024 407.00857 C 106.47983 419.66775 115.47173 429.66434 127.12621 436.9986 C 138.7807 444.3329 152.54484 448 168.41905 448 C 179.06883 448 188.96495 446.74415 198.1077 444.2324 C 207.25043 441.72066 214.63484 438.4052 220.26114 434.28596 C 225.88745 430.1667 228.70055 425.5954 228.70055 420.5719 C 228.70055 415.74937 227.294 411.6804 224.48085 408.3649 C 221.6677 405.0494 217.64897 403.3917 212.42455 403.3917 C 208.00388 403.3917 204.68843 404.2959 202.4781 406.10435 C 200.26777 407.9128 197.75606 409.62076 194.9429 411.2283 C 192.53164 412.4339 189.5176 413.33813 185.90068 413.94095 C 182.28377 414.54377 177.96364 414.84517 172.94016 414.84517 C 163.89789 414.84517 155.91067 412.63487 148.97826 408.2142 C 142.04585 403.79354 136.62057 397.8157 132.70225 390.28046 C 128.78393 382.74523 126.8248 374.1552 126.8248 364.5101 C 126.8248 354.6641 128.7337 345.9736 132.55155 338.43836 C 136.3694 330.90313 141.84491 324.92527 148.97826 320.5046 C 156.1116 316.08394 164.8021 313.87364 175.05001 313.87364 C 177.0594 313.87364 180.12368 314.2253 184.24294 314.92857 C 188.3622 315.63186 191.42648 316.5863 193.43587 317.79194 C 195.6462 318.99758 197.5551 320.30366 199.16262 321.71024 C 200.77013 323.1168 202.6288 324.2722 204.73865 325.17643 C 206.84852 326.08065 209.51092 326.53276 212.72595 326.53276 C 217.34756 326.53276 220.86395 324.77457 223.27522 321.25813 C 225.6865 317.7417 226.8921 313.97413 226.8921 309.95534 C 226.8921 303.92716 224.5311 298.75305 219.80903 294.43286 C 215.08696 290.11266 208.45606 286.74698 199.91613 284.3357 C 191.3762 281.92443 181.37963 280.7188 169.92608 280.7188 Z"/>
        </clipPath>
        <clipPath id="outer_stroke_clip_path_3">
            <path d="M 0 0 L 512 0 L 512 512 L 0 512 Z M 395.2314 287.68886 L 395.2314 287.68886 C 390.1328 287.68886 385.9167 289.4047 382.583 292.83647 C 379.2493 296.26822 377.58246 300.53334 377.58246 305.63194 L 377.58246 380.34576 C 377.58246 392.30787 374.93514 401.18127 369.64044 406.96623 C 364.34573 412.7512 356.30574 415.6436 345.52023 415.6436 C 334.9308 415.6436 326.98888 412.7512 321.69417 406.96623 C 316.39947 401.18127 313.75215 392.30787 313.75215 380.34576 L 313.75215 305.63194 C 313.75215 300.53334 312.08532 296.26822 308.75162 292.83647 C 305.4179 289.4047 301.20183 287.68886 296.10322 287.68886 C 291.0046 287.68886 286.78852 289.4047 283.45482 292.83647 C 280.1211 296.26822 278.4543 300.53334 278.4543 305.63194 L 278.4543 380.34576 C 278.4543 401.1324 284.19013 417.60456 295.662 429.76277 C 307.13386 441.921 323.7531 448 345.52023 448 C 367.28736 448 383.95563 441.921 395.52554 429.76277 C 407.09545 417.60456 412.8803 401.1324 412.8803 380.34576 L 412.8803 305.63194 C 412.8803 300.53334 411.2135 296.26822 407.8798 292.83647 C 404.5461 289.4047 400.33 287.68886 395.2314 287.68886 Z"/>
        </clipPath>
        <clipPath id="outer_stroke_clip_path_4">
            <path d="M 0 0 L 512 0 L 512 512 L 0 512 Z M 398.3847 206.61549 L 346.46185 206.61549 L 349.0003 208.6924 L 380.15402 175.46177 C 388.61557 166.38483 395.34624 156.6542 400.34625 146.26958 C 405.34625 135.88495 407.8462 126.462 407.8462 118.00046 C 407.8462 107.8466 405.76933 99.03903 401.61547 91.57749 C 397.46162 84.11594 391.5771 78.34679 383.9617 74.26987 C 376.3463 70.19294 367.3849 68.15451 357.0772 68.15451 C 352.30796 68.15451 347.38495 68.96219 342.30802 70.57757 C 337.2311 72.19296 332.3081 74.46216 327.53885 77.38524 C 322.7696 80.30832 318.462 83.69289 314.61583 87.53904 C 312.00044 90.15443 309.80816 92.69286 308.03893 95.1544 C 306.2697 97.61594 305.3851 100.15436 305.3851 102.76975 C 305.3851 106.15437 306.80815 109.11587 309.6543 111.65433 C 312.50046 114.1928 315.6158 115.46201 319.00042 115.46201 C 320.5389 115.46201 322.23117 115.15432 324.07733 114.53893 C 325.9235 113.92355 327.7696 112.38511 329.61576 109.92357 C 332.0773 106.6928 334.7311 103.84668 337.57727 101.38514 C 340.42343 98.9236 343.38492 97.00055 346.46185 95.61593 C 349.53878 94.23132 352.53873 93.53902 355.4618 93.53902 C 362.84644 93.53902 368.76943 95.88514 373.23097 100.57745 C 377.6925 105.26976 379.92325 111.46199 379.92325 119.1543 C 379.92325 123.92354 378.26943 129.53884 374.96174 136.00039 C 371.65404 142.46193 367.1541 148.76954 361.4618 154.92339 L 311.1543 208.6924 C 308.38507 211.61548 307.00047 215.00005 307.00047 218.8462 C 307.00047 222.69236 308.1543 225.84617 310.462 228.3077 C 312.7697 230.76925 315.9235 232 319.9235 232 L 398.3847 232 C 402.07703 232 405.1539 230.8077 407.61545 228.4231 C 410.077 226.03847 411.30774 223.07698 411.30774 219.5385 C 411.30774 215.8462 410.077 212.76932 407.61545 210.30778 C 405.1539 207.84624 402.07703 206.61549 398.3847 206.61549 Z"/>
        </clipPath>
    </defs>
    <g id="EC2U_-_Name_3" fill-opacity="1" stroke-dasharray="none" fill="none" stroke-opacity="1" stroke="none">
        <title>EC2U - Name 3</title>
        <g id="EC2U_-_Name_3_Layer_1">
            <title>Layer 1</title>
            <g id="Graphic_25">
                <path d="M 128 0 L 384 0 C 454.69245 4328664e-21 512 57.30755 512 128 L 512 384 C 512 454.69245 454.69245 512 384 512 L 128 512 C 57.30755 512 8657328e-21 454.69245 0 384 L 2842171e-20 128 C 37079037e-21 57.30755 57.30755 24093045e-21 128 2842171e-20 Z"
                      fill="#162372"/>
            </g>
            <g id="Graphic_21">
                <path d="M 175.82324 232 C 158.27737 232 143.05397 228.33606 130.15259 221.00808 C 117.25121 213.6801 107.3431 203.72038 100.42797 191.12864 C 93.51283 178.5369 90.05531 164.29399 90.05531 148.39949 C 90.05531 129.8215 93.82246 113.97885 101.35686 100.87105 C 108.89126 87.76325 118.74777 77.70033 130.92667 70.68198 C 143.10557 63.66363 156.00675 60.15451 169.6306 60.15451 C 180.15813 60.15451 190.11785 62.321905 199.51005 66.65677 C 208.90225 70.99163 217.21062 76.92618 224.4354 84.46058 C 231.66016 91.99499 237.3883 100.71619 241.61994 110.62444 C 245.8516 120.5327 247.96738 131.06007 247.96738 142.20686 C 247.76096 147.16099 245.79998 151.18616 242.0844 154.28249 C 238.3688 157.37882 234.034 158.92696 229.07986 158.92696 L 110.80062 158.92696 L 101.51168 127.96381 L 215.14644 127.96381 L 208.33455 134.15644 L 208.33455 125.79639 C 207.9217 119.81015 205.8059 114.44326 201.9871 109.69555 C 198.1683 104.94784 193.42066 101.1807 187.74405 98.394 C 182.06745 95.6073 176.0297 94.21397 169.6306 94.21397 C 163.43795 94.21397 157.65822 95.03965 152.29124 96.69103 C 146.92427 98.3424 142.27985 101.12906 138.35783 105.05108 C 134.4358 108.9731 131.33952 114.23678 129.06888 120.84228 C 126.79824 127.44779 125.66293 135.80776 125.66293 145.92244 C 125.66293 157.06923 127.98515 166.5129 132.62964 174.25372 C 137.27414 181.99455 143.26029 187.87749 150.58827 191.90272 C 157.91625 195.92795 165.70857 197.94053 173.96545 197.94053 C 181.60307 197.94053 187.69243 197.32128 192.2337 196.08274 C 196.775 194.8442 200.43893 193.34767 203.22563 191.59309 C 206.01233 189.8385 208.54096 188.34196 210.8116 187.10343 C 214.5272 185.24563 218.03632 184.31675 221.33907 184.31675 C 225.88036 184.31675 229.6475 185.86489 232.64062 188.96122 C 235.63374 192.05755 237.13028 195.66988 237.13028 199.79832 C 237.13028 205.37172 234.24042 210.42898 228.4606 214.97027 C 223.09363 219.51155 215.55933 223.48512 205.8575 226.89108 C 196.15566 230.29704 186.14434 232 175.82324 232 Z"
                      fill="#f7d638"/>
                <path d="M 175.82324 232 C 158.27737 232 143.05397 228.33606 130.15259 221.00808 C 117.25121 213.6801 107.3431 203.72038 100.42797 191.12864 C 93.51283 178.5369 90.05531 164.29399 90.05531 148.39949 C 90.05531 129.8215 93.82246 113.97885 101.35686 100.87105 C 108.89126 87.76325 118.74777 77.70033 130.92667 70.68198 C 143.10557 63.66363 156.00675 60.15451 169.6306 60.15451 C 180.15813 60.15451 190.11785 62.321905 199.51005 66.65677 C 208.90225 70.99163 217.21062 76.92618 224.4354 84.46058 C 231.66016 91.99499 237.3883 100.71619 241.61994 110.62444 C 245.8516 120.5327 247.96738 131.06007 247.96738 142.20686 C 247.76096 147.16099 245.79998 151.18616 242.0844 154.28249 C 238.3688 157.37882 234.034 158.92696 229.07986 158.92696 L 110.80062 158.92696 L 101.51168 127.96381 L 215.14644 127.96381 L 208.33455 134.15644 L 208.33455 125.79639 C 207.9217 119.81015 205.8059 114.44326 201.9871 109.69555 C 198.1683 104.94784 193.42066 101.1807 187.74405 98.394 C 182.06745 95.6073 176.0297 94.21397 169.6306 94.21397 C 163.43795 94.21397 157.65822 95.03965 152.29124 96.69103 C 146.92427 98.3424 142.27985 101.12906 138.35783 105.05108 C 134.4358 108.9731 131.33952 114.23678 129.06888 120.84228 C 126.79824 127.44779 125.66293 135.80776 125.66293 145.92244 C 125.66293 157.06923 127.98515 166.5129 132.62964 174.25372 C 137.27414 181.99455 143.26029 187.87749 150.58827 191.90272 C 157.91625 195.92795 165.70857 197.94053 173.96545 197.94053 C 181.60307 197.94053 187.69243 197.32128 192.2337 196.08274 C 196.775 194.8442 200.43893 193.34767 203.22563 191.59309 C 206.01233 189.8385 208.54096 188.34196 210.8116 187.10343 C 214.5272 185.24563 218.03632 184.31675 221.33907 184.31675 C 225.88036 184.31675 229.6475 185.86489 232.64062 188.96122 C 235.63374 192.05755 237.13028 195.66988 237.13028 199.79832 C 237.13028 205.37172 234.24042 210.42898 228.4606 214.97027 C 223.09363 219.51155 215.55933 223.48512 205.8575 226.89108 C 196.15566 230.29704 186.14434 232 175.82324 232 Z"
                      stroke="#f7d638" stroke-linecap="round" stroke-linejoin="round" stroke-width="1"
                      clip-path="url(#outer_stroke_clip_path)"/>
            </g>
            <g id="Graphic_22">
                <path d="M 169.92608 280.7188 C 181.37963 280.7188 191.3762 281.92443 199.91613 284.3357 C 208.45606 286.74698 215.08696 290.11266 219.80903 294.43286 C 224.5311 298.75305 226.8921 303.92716 226.8921 309.95534 C 226.8921 313.97413 225.6865 317.7417 223.27522 321.25813 C 220.86395 324.77457 217.34756 326.53276 212.72595 326.53276 C 209.51092 326.53276 206.84852 326.08065 204.73865 325.17643 C 202.6288 324.2722 200.77013 323.1168 199.16262 321.71024 C 197.5551 320.30366 195.6462 318.99758 193.43587 317.79194 C 191.42648 316.5863 188.3622 315.63186 184.24294 314.92857 C 180.12368 314.2253 177.0594 313.87364 175.05001 313.87364 C 164.8021 313.87364 156.1116 316.08394 148.97826 320.5046 C 141.84491 324.92527 136.3694 330.90313 132.55155 338.43836 C 128.7337 345.9736 126.8248 354.6641 126.8248 364.5101 C 126.8248 374.1552 128.78393 382.74523 132.70225 390.28046 C 136.62057 397.8157 142.04585 403.79354 148.97826 408.2142 C 155.91067 412.63487 163.89789 414.84517 172.94016 414.84517 C 177.96364 414.84517 182.28377 414.54377 185.90068 413.94095 C 189.5176 413.33813 192.53164 412.4339 194.9429 411.2283 C 197.75606 409.62076 200.26777 407.9128 202.4781 406.10435 C 204.68843 404.2959 208.00388 403.3917 212.42455 403.3917 C 217.64897 403.3917 221.6677 405.0494 224.48085 408.3649 C 227.294 411.6804 228.70055 415.74937 228.70055 420.5719 C 228.70055 425.5954 225.88745 430.1667 220.26114 434.28596 C 214.63484 438.4052 207.25043 441.72066 198.1077 444.2324 C 188.96495 446.74415 179.06883 448 168.41905 448 C 152.54484 448 138.7807 444.3329 127.12621 436.9986 C 115.47173 429.66434 106.47983 419.66775 100.15024 407.00857 C 93.82065 394.3494 90.6559 380.1834 90.6559 364.5101 C 90.6559 348.0331 94.02158 333.51543 100.75305 320.95672 C 107.48452 308.398 116.82806 298.55213 128.78395 291.41878 C 140.73985 284.28543 154.45375 280.7188 169.92608 280.7188 Z"
                      fill="#f7d638"/>
                <path d="M 169.92608 280.7188 C 181.37963 280.7188 191.3762 281.92443 199.91613 284.3357 C 208.45606 286.74698 215.08696 290.11266 219.80903 294.43286 C 224.5311 298.75305 226.8921 303.92716 226.8921 309.95534 C 226.8921 313.97413 225.6865 317.7417 223.27522 321.25813 C 220.86395 324.77457 217.34756 326.53276 212.72595 326.53276 C 209.51092 326.53276 206.84852 326.08065 204.73865 325.17643 C 202.6288 324.2722 200.77013 323.1168 199.16262 321.71024 C 197.5551 320.30366 195.6462 318.99758 193.43587 317.79194 C 191.42648 316.5863 188.3622 315.63186 184.24294 314.92857 C 180.12368 314.2253 177.0594 313.87364 175.05001 313.87364 C 164.8021 313.87364 156.1116 316.08394 148.97826 320.5046 C 141.84491 324.92527 136.3694 330.90313 132.55155 338.43836 C 128.7337 345.9736 126.8248 354.6641 126.8248 364.5101 C 126.8248 374.1552 128.78393 382.74523 132.70225 390.28046 C 136.62057 397.8157 142.04585 403.79354 148.97826 408.2142 C 155.91067 412.63487 163.89789 414.84517 172.94016 414.84517 C 177.96364 414.84517 182.28377 414.54377 185.90068 413.94095 C 189.5176 413.33813 192.53164 412.4339 194.9429 411.2283 C 197.75606 409.62076 200.26777 407.9128 202.4781 406.10435 C 204.68843 404.2959 208.00388 403.3917 212.42455 403.3917 C 217.64897 403.3917 221.6677 405.0494 224.48085 408.3649 C 227.294 411.6804 228.70055 415.74937 228.70055 420.5719 C 228.70055 425.5954 225.88745 430.1667 220.26114 434.28596 C 214.63484 438.4052 207.25043 441.72066 198.1077 444.2324 C 188.96495 446.74415 179.06883 448 168.41905 448 C 152.54484 448 138.7807 444.3329 127.12621 436.9986 C 115.47173 429.66434 106.47983 419.66775 100.15024 407.00857 C 93.82065 394.3494 90.6559 380.1834 90.6559 364.5101 C 90.6559 348.0331 94.02158 333.51543 100.75305 320.95672 C 107.48452 308.398 116.82806 298.55213 128.78395 291.41878 C 140.73985 284.28543 154.45375 280.7188 169.92608 280.7188 Z"
                      stroke="#f7d638" stroke-linecap="round" stroke-linejoin="round" stroke-width="4"
                      clip-path="url(#outer_stroke_clip_path_2)"/>
            </g>
            <g id="Graphic_24">
                <path d="M 395.2314 287.68886 C 400.33 287.68886 404.5461 289.4047 407.8798 292.83647 C 411.2135 296.26822 412.8803 300.53334 412.8803 305.63194 L 412.8803 380.34576 C 412.8803 401.1324 407.09545 417.60456 395.52554 429.76277 C 383.95563 441.921 367.28736 448 345.52023 448 C 323.7531 448 307.13386 441.921 295.662 429.76277 C 284.19013 417.60456 278.4543 401.1324 278.4543 380.34576 L 278.4543 305.63194 C 278.4543 300.53334 280.1211 296.26822 283.45482 292.83647 C 286.78852 289.4047 291.0046 287.68886 296.10322 287.68886 C 301.20183 287.68886 305.4179 289.4047 308.75162 292.83647 C 312.08532 296.26822 313.75215 300.53334 313.75215 305.63194 L 313.75215 380.34576 C 313.75215 392.30787 316.39947 401.18127 321.69417 406.96623 C 326.98888 412.7512 334.9308 415.6436 345.52023 415.6436 C 356.30574 415.6436 364.34573 412.7512 369.64044 406.96623 C 374.93514 401.18127 377.58246 392.30787 377.58246 380.34576 L 377.58246 305.63194 C 377.58246 300.53334 379.2493 296.26822 382.583 292.83647 C 385.9167 289.4047 390.1328 287.68886 395.2314 287.68886 Z"
                      fill="#f7d638"/>
                <path d="M 395.2314 287.68886 C 400.33 287.68886 404.5461 289.4047 407.8798 292.83647 C 411.2135 296.26822 412.8803 300.53334 412.8803 305.63194 L 412.8803 380.34576 C 412.8803 401.1324 407.09545 417.60456 395.52554 429.76277 C 383.95563 441.921 367.28736 448 345.52023 448 C 323.7531 448 307.13386 441.921 295.662 429.76277 C 284.19013 417.60456 278.4543 401.1324 278.4543 380.34576 L 278.4543 305.63194 C 278.4543 300.53334 280.1211 296.26822 283.45482 292.83647 C 286.78852 289.4047 291.0046 287.68886 296.10322 287.68886 C 301.20183 287.68886 305.4179 289.4047 308.75162 292.83647 C 312.08532 296.26822 313.75215 300.53334 313.75215 305.63194 L 313.75215 380.34576 C 313.75215 392.30787 316.39947 401.18127 321.69417 406.96623 C 326.98888 412.7512 334.9308 415.6436 345.52023 415.6436 C 356.30574 415.6436 364.34573 412.7512 369.64044 406.96623 C 374.93514 401.18127 377.58246 392.30787 377.58246 380.34576 L 377.58246 305.63194 C 377.58246 300.53334 379.2493 296.26822 382.583 292.83647 C 385.9167 289.4047 390.1328 287.68886 395.2314 287.68886 Z"
                      stroke="#f7d638" stroke-linecap="round" stroke-linejoin="round" stroke-width="4"
                      clip-path="url(#outer_stroke_clip_path_3)"/>
            </g>
            <g id="Graphic_23">
                <path d="M 398.3847 206.61549 C 402.07703 206.61549 405.1539 207.84624 407.61545 210.30778 C 410.077 212.76932 411.30774 215.8462 411.30774 219.5385 C 411.30774 223.07698 410.077 226.03847 407.61545 228.4231 C 405.1539 230.8077 402.07703 232 398.3847 232 L 319.9235 232 C 315.9235 232 312.7697 230.76925 310.462 228.3077 C 308.1543 225.84617 307.00047 222.69236 307.00047 218.8462 C 307.00047 215.00005 308.38507 211.61548 311.1543 208.6924 L 361.4618 154.92339 C 367.1541 148.76954 371.65404 142.46193 374.96174 136.00039 C 378.26943 129.53884 379.92325 123.92354 379.92325 119.1543 C 379.92325 111.46199 377.6925 105.26976 373.23097 100.57745 C 368.76943 95.88514 362.84644 93.53902 355.4618 93.53902 C 352.53873 93.53902 349.53878 94.23132 346.46185 95.61593 C 343.38492 97.00055 340.42343 98.9236 337.57727 101.38514 C 334.7311 103.84668 332.0773 106.6928 329.61576 109.92357 C 327.7696 112.38511 325.9235 113.92355 324.07733 114.53893 C 322.23117 115.15432 320.5389 115.46201 319.00042 115.46201 C 315.6158 115.46201 312.50046 114.1928 309.6543 111.65433 C 306.80815 109.11587 305.3851 106.15437 305.3851 102.76975 C 305.3851 100.15436 306.2697 97.61594 308.03893 95.1544 C 309.80816 92.69286 312.00044 90.15443 314.61583 87.53904 C 318.462 83.69289 322.7696 80.30832 327.53885 77.38524 C 332.3081 74.46216 337.2311 72.19296 342.30802 70.57757 C 347.38495 68.96219 352.30796 68.15451 357.0772 68.15451 C 367.3849 68.15451 376.3463 70.19294 383.9617 74.26987 C 391.5771 78.34679 397.46162 84.11594 401.61547 91.57749 C 405.76933 99.03903 407.8462 107.8466 407.8462 118.00046 C 407.8462 126.462 405.34625 135.88495 400.34625 146.26958 C 395.34624 156.6542 388.61557 166.38483 380.15402 175.46177 L 349.0003 208.6924 L 346.46185 206.61549 Z"
                      fill="#ebebeb"/>
                <path d="M 398.3847 206.61549 C 402.07703 206.61549 405.1539 207.84624 407.61545 210.30778 C 410.077 212.76932 411.30774 215.8462 411.30774 219.5385 C 411.30774 223.07698 410.077 226.03847 407.61545 228.4231 C 405.1539 230.8077 402.07703 232 398.3847 232 L 319.9235 232 C 315.9235 232 312.7697 230.76925 310.462 228.3077 C 308.1543 225.84617 307.00047 222.69236 307.00047 218.8462 C 307.00047 215.00005 308.38507 211.61548 311.1543 208.6924 L 361.4618 154.92339 C 367.1541 148.76954 371.65404 142.46193 374.96174 136.00039 C 378.26943 129.53884 379.92325 123.92354 379.92325 119.1543 C 379.92325 111.46199 377.6925 105.26976 373.23097 100.57745 C 368.76943 95.88514 362.84644 93.53902 355.4618 93.53902 C 352.53873 93.53902 349.53878 94.23132 346.46185 95.61593 C 343.38492 97.00055 340.42343 98.9236 337.57727 101.38514 C 334.7311 103.84668 332.0773 106.6928 329.61576 109.92357 C 327.7696 112.38511 325.9235 113.92355 324.07733 114.53893 C 322.23117 115.15432 320.5389 115.46201 319.00042 115.46201 C 315.6158 115.46201 312.50046 114.1928 309.6543 111.65433 C 306.80815 109.11587 305.3851 106.15437 305.3851 102.76975 C 305.3851 100.15436 306.2697 97.61594 308.03893 95.1544 C 309.80816 92.69286 312.00044 90.15443 314.61583 87.53904 C 318.462 83.69289 322.7696 80.30832 327.53885 77.38524 C 332.3081 74.46216 337.2311 72.19296 342.30802 70.57757 C 347.38495 68.96219 352.30796 68.15451 357.0772 68.15451 C 367.3849 68.15451 376.3463 70.19294 383.9617 74.26987 C 391.5771 78.34679 397.46162 84.11594 401.61547 91.57749 C 405.76933 99.03903 407.8462 107.8466 407.8462 118.00046 C 407.8462 126.462 405.34625 135.88495 400.34625 146.26958 C 395.34624 156.6542 388.61557 166.38483 380.15402 175.46177 L 349.0003 208.6924 L 346.46185 206.61549 Z"
                      stroke="white" stroke-linecap="round" stroke-linejoin="round" stroke-width="8"
                      clip-path="url(#outer_stroke_clip_path_4)"/>
            </g>
        </g>
    </g>
</svg>
